<svg xmlns="http://www.w3.org/2000/svg" xmlns:xlink="http://www.w3.org/1999/xlink" width="500" height="500" viewBox="0 0 500 500">
  <defs>
    <linearGradient id="a" x1="30.03" y1="329.8" x2="469.94" y2="169.69" gradientUnits="userSpaceOnUse">
      <stop offset="0.24" stop-color="#2196f3"/>
      <stop offset="0.49" stop-color="#1b90f5"/>
      <stop offset="0.83" stop-color="#0b80fb"/>
      <stop offset="1" stop-color="#0075ff"/>
    </linearGradient>
    <clipPath id="c">
      <path d="M484,249.76c0,129.21-104.78,234-234,234S16,379,16,249.76s104.76-234,234-234S484,120.51,484,249.76Z" style="fill: url(#a)"/>
    </clipPath>
  </defs>
  <title>Logo1</title>
  <g>
    <path d="M484,249.76c0,129.21-104.78,234-234,234S16,379,16,249.76s104.76-234,234-234S484,120.51,484,249.76Z" style="fill: url(#a)"/>
    <g style="clip-path: url(#c)">
      <path d="M250.9,411a16,16,0,0,1-14.73-9.75L177.33,262.47,155,349.58a16,16,0,0,1-30.66,1L86.49,235.88,76.14,293.4a16,16,0,0,1-15.75,13.13H-34.85a16,16,0,0,1-16-16,16,16,0,0,1,16-16H47L66.23,168.13A16,16,0,0,1,97.16,166L137.58,288.7l20.53-80a16,16,0,0,1,30.23-2.26l60.19,142,77-248.68A16,16,0,0,1,340.57,88.5a16.43,16.43,0,0,1,15.32,11l69.32,208.26L439.92,281a16,16,0,0,1,14-8.3h80.87a16,16,0,0,1,0,32H463.41l-27.8,50.54a16,16,0,0,1-29.17-2.67L341.28,156.82,266.17,399.7a16,16,0,0,1-14.47,11.22A7.22,7.22,0,0,1,250.9,411Z" style="fill: #fff"/>
    </g>
  </g>
</svg>
